<?xml version="1.0" encoding="utf-8"?>
<!-- Generator: Adobe Illustrator 17.1.0, SVG Export Plug-In . SVG Version: 6.00 Build 0)  -->
<!DOCTYPE svg PUBLIC "-//W3C//DTD SVG 1.1//EN" "http://www.w3.org/Graphics/SVG/1.1/DTD/svg11.dtd">
<svg version="1.1" id="Layer_1" xmlns="http://www.w3.org/2000/svg" xmlns:xlink="http://www.w3.org/1999/xlink" x="0px" y="0px"
	 viewBox="0 0 30 32" enable-background="new 0 0 30 32" xml:space="preserve">
<g>
	<path fill="#010101" d="M3.3,22.9C3.3,22.9,3.3,22.9,3.3,22.9L3.3,22.9L3.3,22.9c0,3.2-1.4,5.1-1.4,5.1l0.5,0.5L0,31l3.6,1L5,30.8
		l0.5,0.5c0,0,1.7-1.6,4.4-1.8l0,0l0,0c0,0,0,0,0,0"/>
	<g>
		<g>
			<path fill="#FFFFFF" d="M4.1,22.7L23.1,1c0,0,0.1,0,0.1,0c0.7,0,2.2,0.2,3.9,1.9c1.8,1.8,2,3.5,2,4.1L10.1,28.6L4.1,22.7z"/>
			<path fill="#010101" d="M23.5,2c0.6,0.1,1.7,0.4,2.8,1.6C27.6,4.9,27.9,6,28,6.6L10,27.1l-4.5-4.5L23.5,2 M23.2,0
				c-0.4,0-0.6,0-0.6,0L2.7,22.7l7.4,7.4L30,7.4c0,0,0.5-2.5-2.2-5.2C25.8,0.3,24.1,0,23.2,0L23.2,0z"/>
		</g>
	</g>
	<line fill="#FFFFFF" stroke="#010101" x1="13.8" y1="24.6" x2="7.1" y2="18"/>
</g>
</svg>
